<?xml version="1.0" encoding="utf-8"?><!DOCTYPE svg PUBLIC "-//W3C//DTD SVG 1.1//EN" "http://www.w3.org/Graphics/SVG/1.1/DTD/svg11.dtd"><svg xmlns="http://www.w3.org/2000/svg" width="100" height="100" viewBox="0 0 100 100"><path fill="#fff" d="M56.7 20.3H41.1c-2.1 0-4.3.2-6.6.7-2.4.6-4.7 1.7-6.9 3.6-3.2 3.1-4.8 6.6-4.8 10.4 0 3.2 1.1 5.9 3.4 8.3 2.2 2.6 5.3 3.9 9.5 3.9.8 0 1.6-.1 2.5-.2-.1.4-.3.9-.5 1.3-.2.5-.3 1-.3 1.7 0 1.1.3 2.1.8 2.9.4.8.9 1.6 1.5 2.4-1.8 0-4.1.3-6.8.7-2.8.5-5.4 1.4-7.9 2.9-2.2 1.3-3.8 2.9-4.6 4.7-.9 1.8-1.3 3.4-1.3 4.8 0 3 1.4 5.5 4.1 7.6 2.7 2.3 6.7 3.4 12.2 3.5 6.5-.1 11.5-1.7 14.9-4.7 3.3-2.9 5-6.3 5-10 0-2.7-.7-4.8-1.8-6.5-1.2-1.6-2.7-3.1-4.3-4.5l-2.6-2.2c-.4-.4-.8-.8-1.2-1.3-.5-.5-.7-1.2-.7-2s.2-1.6.7-2.2c.4-.6.8-1.2 1.3-1.6.8-.7 1.6-1.4 2.3-2.1.6-.7 1.3-1.4 1.8-2.2 1.2-1.7 1.8-3.9 1.8-6.7 0-1.5-.2-2.9-.5-4-.4-1.1-.9-2.1-1.4-3-.6-.9-1.1-1.6-1.7-2.2-.6-.6-1.2-1-1.6-1.3h4.8l4.5-2.7zm-8.6 42.5C49.4 64.3 50 66 50 68c0 2.4-.9 4.4-2.8 6-1.9 1.6-4.7 2.4-8.4 2.4-4.1-.1-7.3-1-9.6-2.7-2.5-1.8-3.7-4-3.7-6.8 0-1.4.3-2.6.9-3.6.5-.9 1.1-1.7 1.8-2.4.7-.6 1.5-1.1 2.2-1.4.7-.3 1.3-.5 1.7-.7 1.7-.5 3.3-.9 4.9-1.1 1.6-.2 2.6-.2 3-.2.7 0 1.2 0 1.7.1 3 2.1 5.1 3.8 6.4 5.2zm-2.5-22.9c-.2 1-.6 2.1-1.3 3-1.4 1.4-3.1 2.1-5.1 2.2-1.6 0-3.1-.5-4.3-1.5-1.3-1-2.3-2.2-3.1-3.6-1.6-3-2.5-6-2.5-8.8-.1-2.1.5-4.1 1.7-5.8 1.4-1.7 3.1-2.5 5.2-2.6 1.6.1 3 .5 4.2 1.4 1.2.9 2.2 2.2 2.9 3.7 1.6 3.1 2.3 6.2 2.3 9.3.2.8.1 1.7 0 2.7zm35.3 4.7h-8.2v-8.3h-4.8v8.3h-8.2v4.6h.1v.2H68v8.2h4.8v-8.2h8.4v-4.8h-.3z"/></svg>