<svg xmlns="http://www.w3.org/2000/svg" width="23" height="23" viewBox="0 0 23 23"><path fill="#fff" d="M5.9 4H17c1.1 0 2 .9 2 1.9V17c0 1.1-.9 1.9-1.9 1.9H5.9c-1 .1-1.9-.8-1.9-1.8V5.9C4 4.9 4.9 4 5.9 4zm9 1.7c-.4 0-.7.3-.7.7V8c0 .4.3.7.7.7h1.7c.4 0 .7-.3.7-.7V6.3c0-.4-.3-.7-.7-.7h-1.7zm2.4 4.6H16c.1.4.2.8.2 1.3 0 2.5-2.1 4.5-4.7 4.5s-4.7-2-4.7-4.5c0-.4.1-.9.2-1.3H5.7v6.3c0 .3.3.6.6.6h10.4c.3 0 .6-.3.6-.6v-6.3zm-5.8-1.8c-1.7 0-3 1.3-3 2.9 0 1.6 1.3 2.9 3 2.9s3-1.3 3-2.9c0-1.5-1.3-2.9-3-2.9z"/></svg>