<?xml version="1.0" encoding="utf-8"?>
<!-- Generator: Adobe Illustrator 22.1.0, SVG Export Plug-In . SVG Version: 6.00 Build 0)  -->
<svg version="1.1" id="Layer_1" xmlns="http://www.w3.org/2000/svg" xmlns:xlink="http://www.w3.org/1999/xlink" x="0px" y="0px"
	 viewBox="0 0 23 23" style="enable-background:new 0 0 23 23;" xml:space="preserve">
<style type="text/css">
	.st0{fill:#FFFFFF;}
</style>
<g id="art">
	<g>
		<g>
			<path class="st0" d="M11.4,1.1C5.6,1.1,0.9,5.8,0.9,11.6c0,4.4,2.8,8.2,6.7,9.8c-0.1-0.8-0.2-2.1,0-3c0.2-0.8,1.2-5.2,1.2-5.2
				s-0.3-0.6-0.3-1.6c0-1.5,0.8-2.5,1.9-2.5c0.9,0,1.3,0.7,1.3,1.5c0,0.9-0.6,2.2-0.9,3.5c-0.3,1,0.5,1.9,1.6,1.9
				c1.9,0,3.3-2,3.3-4.8c0-2.5-1.8-4.3-4.4-4.3c-3,0-4.7,2.2-4.7,4.5c0,0.9,0.3,1.9,0.8,2.4c0.1,0.1,0.1,0.2,0.1,0.3
				c-0.1,0.3-0.3,1-0.3,1.2c0,0.2-0.2,0.2-0.4,0.1c-1.3-0.6-2.1-2.5-2.1-4.1C4.7,8,7.1,5,11.6,5c3.6,0,6.5,2.6,6.5,6.1
				c0,3.6-2.3,6.5-5.4,6.5c-1.1,0-2.1-0.6-2.4-1.2c0,0-0.5,2-0.7,2.5c-0.2,0.9-0.9,2.1-1.3,2.8c1,0.3,2,0.5,3.1,0.5
				c5.8,0,10.5-4.7,10.5-10.5C21.9,5.8,17.2,1.1,11.4,1.1z"/>
		</g>
	</g>
</g>
</svg>
