<?xml version="1.0" encoding="utf-8"?><!DOCTYPE svg PUBLIC "-//W3C//DTD SVG 1.1//EN" "http://www.w3.org/Graphics/SVG/1.1/DTD/svg11.dtd"><svg xmlns="http://www.w3.org/2000/svg" width="100" height="100" viewBox="0 0 100 100"><path fill="#fff" d="M84.9 28.4c-2.6 1.1-5.3 1.9-8.2 2.3 3-1.8 5.2-4.6 6.3-7.9-2.8 1.6-5.8 2.8-9.1 3.5-2.6-2.8-6.3-4.5-10.5-4.5-7.9 0-14.3 6.4-14.3 14.3 0 1.1.1 2.2.4 3.3C37.6 38.6 27 32.9 20 24.3c-1.2 2.1-1.9 4.6-1.9 7.2 0 5 2.5 9.3 6.4 11.9-2.3-.1-4.6-.7-6.5-1.8v.2c0 6.9 4.9 12.7 11.5 14-1.2.3-2.5.5-3.8.5-.9 0-1.8-.1-2.7-.3 1.8 5.7 7.1 9.8 13.4 9.9-4.9 3.8-11.1 6.1-17.8 6.1-1.2 0-2.3-.1-3.4-.2 6.3 4.1 13.9 6.4 21.9 6.4 26.3 0 40.7-21.8 40.7-40.7v-1.9c2.7-1.9 5.2-4.4 7.1-7.2z"/></svg>