<?xml version="1.0" encoding="utf-8"?><!DOCTYPE svg PUBLIC "-//W3C//DTD SVG 1.1//EN" "http://www.w3.org/Graphics/SVG/1.1/DTD/svg11.dtd"><svg xmlns="http://www.w3.org/2000/svg" width="293.7" height="22.7" viewBox="0 0 293.7 22.7"><path fill="#007360" d="M18.1 15.4V0C12.5 1.5 6 1.5 0 .1v15.3c0 1.3-.3 2.3 5 4.2 1.2.4 2.8 1 4.1 1.4 1.2-.4 2.3-.8 3.5-1.3 1.7-.7 5.6-1.3 5.5-4.3z"/><path fill="#9D0917" d="M.8 4.6h16.6v9.9H.8V4.6z"/><path fill="#E6D1B9" d="M12.6 11.7h-3l-.5.5-.5-.5H5.7V6.8h2.9l.5.5.5-.5h3v4.9zM13.9 13H9.8l-.7.7-.7-.7h-4V7.8l.6-.5.1 5h3.5l.5.5.7-.5h3.4v-5l.7.5V13zM17.4 10.5l-2.8.6V8.3c.9-.1 1.6-.4 2.8-.6v2.8zM3.7 11.2c-1-.1-1.6-.3-2.9-.6V7.8c1.2.3 2.1.3 2.9.6v2.8zM17.4 15.7c-.3 1.9-2.4 2.5-3.1 2.8-1.7.7-3.4 1.2-5.1 1.9C2.6 17.9 1 17.6.9 15.6v-2.1c5.2 1.2 11.1 1.3 16.6.1v2.1h-.1zM17.4 4.9C12.1 6.1 6 6.3.8 4.9V1c5.1 1.1 11.6 1.3 16.6 0v3.9z"/><path fill="#007360" d="M16.7 3h-1.2l-.4-1.3-.5 1.3h-1.2l1 .6-.3 1.2 1-.7 1 .7-.3-1.2.9-.6zM4.6 3H3.5S3 1.7 3 1.8L2.6 3H1.4l1 .7L2 4.8l1-.7 1.1.7-.4-1.2.9-.6zM10.6 3.4H9.4L9 2.3l-.4 1.1H7.4l1 .8L8 5.4l1-.7 1 .7-.4-1.2 1-.8zM3.9 15.5v-.8l-.3-.3-.3.3v.8l.2.5v.7h.3V16l.1-.5zM5.2 16v-.4h-.9L4 16v.7h.2v-.4l.3-.3.4.2.3-.2zM2.1 16v-.4H3l.3.4v.7H3v-.4l-.3-.3-.3.2-.3-.2zM3.3 17.2v-.3h-.5v.3l.3.3.2-.3zM4 17.2v-.3h.5v.3l-.4.3-.1-.3zM3.9 17.6l-.1-.3v-.4h-.3v.4l-.2.3.3.4.3-.4zM9.7 16.4v-1.3l-.5-.4-.4.4v1.3l.2.6v1.1h.4V17l.3-.6zM11.5 17v-.6h-1.3l-.5.7v1h.4v-.7l.4-.4.6.4.4-.4zM7 17v-.6h1.2l.5.7v1h-.4v-.7l-.4-.4-.6.4L7 17zM8.7 18.9v-.4h-.8v.3l.6.4.2-.3zM9.7 18.9v-.4h.8v.3l-.6.4-.2-.3zM9.7 19.5l-.3-.5v-.5H9v.5l-.3.5.5.6.5-.6zM14.9 15.5v-.9l-.3-.3-.3.3v.9l.2.4v.7h.2v-.7l.2-.4zM16.1 15.9v-.4h-.8l-.4.5v.6h.3v-.4l.3-.3.4.3.2-.3zM13.1 15.9v-.4h.8l.4.5v.6H14v-.4l-.3-.3-.4.3-.2-.3zM14.3 17.2v-.3h-.6v.2l.4.3.2-.2zM14.9 17.2v-.3h.6v.2l-.4.3-.2-.2zM14.9 17.6l-.2-.4v-.3h-.2v.3l-.2.4.3.4.3-.4z"/><path fill-rule="evenodd" clip-rule="evenodd" fill="#231F20" d="M100.8 17.9c-2.7 0-3.8-3.3-3.8-6 0-2.4.9-4.5 3.2-4.5 2.7 0 3.7 2.9 3.7 5.8.1 3.3-1.1 4.7-3.1 4.7zm-.2.8c2.8 0 5-2.6 5-6 0-5.1-3.3-6.2-5-6.2-2.9 0-5.1 2.9-5.1 6.3 0 3.8 2.1 5.9 5.1 5.9z"/><path fill="#231F20" d="M33.5 9.6l-.7-2s-.1 0 .4-1.6l1-3.2c.5-1.6 1-2.4 1.7-2.4.8 0 .8-.5.2-.5H33c-.2 0-.5.1-.5.3 0 .2.4.1.6.3.4.2.7 1.1.4 2.1l-1.2 4-1.4-3.7c-.3-.7-.6-2.2 0-2.4.7-.2.6-.5.2-.5-.8 0-1.2.1-1.9.1-.8 0-1.4-.1-2.2-.1-.2 0-.5 0-.4.3 0 .2.4.1.7.3.9.6 1.1 1.4 1.4 2.3l2 5.8c.4 1 .4.7.1 1.6L29 15.2 24.7 2.5c-.3-.9-.5-1.6.2-2 .3-.2.4-.2.5-.3.1 0 .1-.2-.4-.2-.8 0-1.3.1-2.1.1S21.5 0 20.7 0c-.3 0-.3.1-.3.3 0 .3.6.1 1.2.7.3.3.9 1.5 1 1.9L28 18.2c.1.2.1.7.4.7.2 0 .3-.5.4-.7l2.8-7.7 2.7 7.3c.1.3.3 1.1.6 1.1.2 0 .3-.4.4-.7l5.3-15.1c.4-1.2 1-2.5 1.8-2.6.3 0 .5-.2.5-.2 0-.2 0-.3-.3-.3-.6 0-.9.1-1.5.1S40 0 39.5 0s-.5.1-.5.3c0 .2.6.1.9.8.2.4.1 1.2-.1 1.7l-4.5 12.3-1.8-5.5zM93.3 6.9c0-2.1 0-2.9-.3-2.9s-.3.1-.6 1c-.5 1.6-2.2 2.3-2.8 2.6-.1.1-.1.1-.1.2 0 .2.7.1 2.1.2v7.2c0 3.1 1.5 3.6 2.6 3.6 1.7 0 2.9-1.2 2.9-1.6 0-.2 0-.3-.2-.2-.2.1-.8.7-2 .7-1 0-1.5-.6-1.6-1.8V8.1h3c.2 0 .6-1.3.6-1.4 0-.2.1-.3.1-.4 0-.2-.2-.3-.3 0-.1.1-.3.5-.9.5h-2.5v.1zM108.4 9.9c0-.4.8-2.2 2.7-2.2 1.9 0 2.7 2.1 2.7 3.5v5.2c0 2-.7 1.4-1 1.8-.2.2.1.3.4.3.3 0 .8-.1 1.7-.1 1.1 0 1.6.1 1.9.1.2 0 .7-.2.4-.4-.6-.5-1.7.2-1.7-1.8v-4.6c0-2.1-.7-5.2-3.8-5.2-2.2 0-3.4 2.1-3.3 1.8V6.7c0-.3-.1-.4-.3-.4-.5 0-.9.9-2.7 1.5-.1 0-.4 0-.5.2 0 .6 1.8-.8 1.8 1.5v6.9c0 1.8-1.2 1.4-1.5 1.8-.1.2.2.3.5.3s.7-.1 2-.1 1.8.1 2.2.1c.3 0 .7-.2.5-.4-.4-.4-2 .1-2-1.9V9.9z"/><path fill-rule="evenodd" clip-rule="evenodd" fill="#231F20" d="M44.8 15.6c0 1.5-1.5 2.2-2.3 2.2-1.2 0-2.1-.8-2.1-2.4 0-2.4 2.9-2.9 4.4-3.3v3.5zm-.2-4.1c-5.4 1.1-6.2 2.9-6.2 4.3 0 2 1.4 2.8 2.9 2.8 1.3 0 2.6-.6 3.5-1.6.3.9.9 1.5 1.8 1.4.3 0 .4.1 1.3-.3.3-.1.3-.1.7 0 .7.1-1-2.6-1-1.9 0 .2.1 1.4-.5 1.5-1.1.1-.8-1.7-.8-2.6V9.4c-.1-1.8-1.4-2.9-3.4-2.9-2.8 0-4.7 3.4-3.8 4.4.2.3 1.1-.7 1.2-.8l.1-.1c0-1.2.9-2.6 2.1-2.8 1.4-.1 2.1.9 2.1 2.4v1.9z"/><path fill="#231F20" d="M50.7 6.5c-1.6 0-3.1 1.1-3 3.2 0 2 2.3 3 3.5 3.8.9.5 2 1.2 2 2.3 0 1.4-1.1 2.4-2.3 2.3-2.8 0-2.5-3.6-3-3.6-.3 0-.3.9-.3 1.4 0 1.1.4 1.6.4 2.1.3.1-.1.2.2.2.6 0 1.3.6 3 .6 1.8 0 3.4-1.7 3.4-3.7 0-1.3-.4-2.1-2.1-3.2-.5-.3-1.2-.7-1.5-.9-1.4-.8-2-1.3-2.1-2.1-.1-1.3 1-2 2-1.9 2.3 0 2.6 2.5 2.8 2.5.3 0 .3-.3.3-1.1 0-.2 0-1.1-.1-1.4-.3-.4-1.9-.7-2.3-.7h-.5c-.2.2-.4.2-.4.2zM57.4.6c0-.3-.1-.4-.3-.4-.4 0-1 1.1-2.6 1.5-.1 0-.5.1-.5.2 0 .6 1.7-.3 1.8 1.5v13.3c0 1.4-1.2 1.2-1.4 1.6 0 .2.1.3.2.3.4 0 1.4-.1 2.1-.1.7 0 1.9.1 2.4.1.3 0 .4-.1.4-.4-.2-.5-2 .3-2-2.1v-5.8c0-1.4 1.7-2.5 2.7-2.5.8 0 2.8.6 2.8 4.1V17c0 1-1.1 1.1-1.1 1.4 0 .2.1.3.4.3.3 0 1-.1 1.9-.1.9 0 1.6.1 2.1.1.3 0 .4 0 .3-.3 0-.1 0-.3-.4-.2-.8 0-1.5-.2-1.5-1.3v-4.6c0-2.4-.9-5.5-3.9-5.5-1.3 0-2.4.7-3.3 1.7V.6h-.1zM67.7 2.9c-.3 0-.9 1.1-.9 1.4 0 .3.7 1.4.9 1.4.3 0 .9-1.1.9-1.4 0-.3-.6-1.4-.9-1.4zM66.9 16c.1 1.7-.9 1.8-1.4 1.8-.7 0-.6.1-.6.3 0 .3.5.3 1.2.3.3 0 .9-.1 1.6-.1.9 0 1.7.1 2.1.1.3 0 .7-.7.1-.6-.5 0-1.5-.2-1.5-1.2V6.7c0-.3-.1-.4-.3-.4-.5 0-.9 1-2.3 1.5-.1 0-.3.1-.3.2 0 .6 1.3-.5 1.3 1.5V16h.1zM73.3 9.9c0-.4.8-2.2 2.7-2.2 1.9 0 2.7 2.1 2.7 3.5v5.2c0 1.8-.7 1.4-1 1.8-.2.2.1.3.4.3.3 0 .8-.1 1.7-.1 1.1 0 1.7.1 2 .1.2 0 .7-.2.4-.4-.6-.5-1.8.1-1.8-1.9v-4.6c0-2.1-.7-5.2-3.8-5.2-2.2 0-3.4 2.1-3.3 1.8V6.7c0-.3-.1-.4-.3-.4-.5 0-.6.9-2.6 1.4-.1 0-.4 0-.4.3 0 .6 1.6-.6 1.6 1.5v6.9c0 1.5-1.2 1.5-1.4 1.5-.2 0-.5 0-1-.1-.6-.1-.1.4-.2.5-.1.2 1.3.2 1.6.2.3 0 .7-.1 2-.1s1.8.1 2.2.1c.3 0 .7-.2.5-.4-.4-.4-2 .1-2-1.9V9.9z"/><path fill-rule="evenodd" clip-rule="evenodd" fill="#231F20" d="M83.1 20.7c-.7-1.1-.1-3 .9-3.1.2 0 .2.1 2.4.2 2.2.1 3 .7 3.1 1.3.2 1-.5 3.2-3.6 3-2.1-.3-2.7-1.2-2.8-1.4zm5.1-10.3c0 1.7-.8 3.1-2.5 3.1-1.9 0-2.5-1.8-2.5-3.5 0-1.8.5-3.2 2.4-3.2s2.6 1.9 2.6 3.6zm-5.4 7c-.8.3-1.7 1.3-1.7 2.3-.1 2.2 2.6 3.1 4.9 3 4.6-.1 5.9-3.3 4.9-4.9-1-1.7-3.1-1.7-5.1-1.7-3.7 0-3-2.3-1.5-2.2.4 0 .2.1 1.4.1 2.2 0 4.2-1.5 4.2-3.9 0-.2 0-.9-.5-1.9h3.1c.1 0-.1-2.6-1.1-1.6-.2.1-1.2.9-2.5.6-.7-.1-1.4-.9-3.4-.9-2.1 0-4 1.7-4 4.1 0 1.3.6 2.5 1.5 3.1-.2.1-1.4 1.1-1.2 2.3 0-.1 0 1.1 1 1.6zM166.1 11.6c.5 0 .8 0 .8-.5 0-1.1-1.2-4.4-4.1-4.4-2.9 0-4.5 3-4.5 6.5 0 1.8 1.2 5.7 4.7 5.7 2.1 0 4.1-2 4.1-2.6 0-.1 0-.2-.1-.2-.5 0-1.3 1.4-3.3 1.4-1.4 0-3.7-1.4-3.7-5.9h6.1zm-6.2-.8c0-1.5 1-3.5 2.4-3.5 1.3 0 2.6 1.4 2.6 2.9 0 .4-.1.6-.5.6h-4.5z"/><path fill="#231F20" d="M177.1 6.8c-1.6 0-3 1-3 3.1 0 1.9 2.3 3 3.5 3.7.9.5 2 1 2 2.2 0 1.4-1.1 2.3-2.3 2.3-2.7 0-2.4-3.5-2.9-3.5-.3 0-.3.9-.3 1.3 0 1.1 0 2 .1 2.1 0 .1.2 0 .4 0 .5 0 1.2.6 2.8.6 1.8 0 3.4-1.6 3.4-3.6 0-1.2-.4-2-2.1-3.1-.4-.2-1.1-.6-1.4-.8-1.4-.8-2-1.3-2-2-.1-1.3 1-1.9 1.9-1.8 2.2 0 2.5 2.4 2.7 2.4.3 0 .2-.3.2-1.1 0-.2 0-1.1-.1-1.3-.3-.4-1.8-.6-2.2-.6h-.5c0 .1-.2.1-.2.1zM183.4 2.6c-.3 0-1 1.2-1 1.5 0 .3.7 1.4 1 1.4.3 0 1-1.1 1-1.4s-.7-1.5-1-1.5zM182.6 16c0 2.5-1.1 1.5-1.3 2.2-.1.3.4.3.6.3.3 0 .9-.1 1.6-.1.9 0 1.7.1 2.2.1.3 0 .5-.1.4-.3-.2-.5-1.8-.1-1.8-1.5v-10c0-.3-.1-.4-.3-.4-.5 0-.9 1-2.4 1.5-.1 0-.4 0-.4.2 0 .6 1.4-.6 1.3 1.5V16h.1zM123.3 4.3c0-1.7 1.2-1.4 1.3-1.7 0-.4-1.1-.2-1.2-.2-.6 0-1 .1-1.6.1-.5 0-1.1-.1-1.6-.1-.1 0-.4 0-.5.1-.2.5 1.6.2 1.6 1.7v7.5c0 3.7 1 7.3 6 7.2 5.9-.1 5.8-5.9 5.8-7.1V5c0-2.2 1-2 1.2-2.3.1-.2-.2-.2-.3-.2-.3 0-1.1.1-1.5.1-.7 0-1.4-.1-2.1-.1-.1 0-.4 0-.4.2 0 .6 1.8-.1 1.8 2.4v7.2c0 2.8-.8 5.8-4.4 5.8-2.6 0-4-1.8-4-5.6V4.3h-.1zM189 7.3c0-2 0-2.6-.3-2.6s-.3.1-.5 1c-.5 1.5-2.1 2.2-2.7 2.5-.1.1-.1.1-.1.2 0 .2.6.1 1.9.1v6.8c0 2.9 1.4 3.4 2.5 3.4 1.6 0 2.7-1.1 2.8-1.5 0-.2 0-.2-.2-.2-.2.1-.7.7-1.9.7-.9 0-1.4-.5-1.5-1.7V8.6h2.9c.2 0 .6-1.1.6-1.2 0-.1-.1-.1-1.1-.1H189zM136.9 10c0-.4.8-2.1 2.7-2.1 1.8 0 2.7 2 2.7 3.4v5.1c0 1.8-.7 1.4-1 1.8-.2.2.1.3.4.3s.8-.1 1.6-.1c1 0 1.7.1 2 .1.2 0 1.2-1 .9-1-.1 0-.4.5-1 .5h-.4c-.5-.1-.9-.4-.9-1.6v-4.5c0-2.1-.7-5.1-3.7-5.1-2.2 0-3.3 2-3.3 1.7V6.9c0-.3-.1-.4-.3-.4-.5 0-.7 1-2.5 1.4-.1 0-.4 0-.5.2 0 .6 1.6-.5 1.6 1.5v6.8c0 1.8-1.4 1.3-1.6 1.8-.1.2.4.3.7.3.3 0 .7-.1 1.9-.1 1.3 0 1.8.1 2.2.1.3 0 .7-.2.5-.4-.4-.4-2 .1-2-1.8V10zM152.2 9.7c-.3-.8-.4-1.3-.4-1.4 0-.8 1-.6 1.3-1 .1-.2-.2-.3-.5-.3s-.6.1-1.4.1h-1.5c-.8-.1-.7.3-.5.4.3.1.4 0 .8 1.2l3.5 9.6c.1.2.2.7.5.7s.3-.3.8-1.5c0 0 3.3-9.1 3.6-9.4.5-.6.8-.4 1-.6.2-.2.2-.5-.5-.4-.4 0-.7.1-1.1.1h-1.1c-.6 0-.8 0-.7.2.1.5 1.4 0 1.2 1.6-.1 1.3-.6 2.4-1 3.5l-1.5 4-2.5-6.8zM170 10c0-.3.5-1.6 1.5-1.6.8 0 .9.6 1.3.6.3 0 .8-.8.8-1.2 0-.5-1-1.2-1.5-1.2-.9 0-1.6 1.1-2.1 1.9V6.8c0-.3-.1-.4-.3-.4-.4 0-.6.7-2.6 1.2-.1 0-.4.1-.4.3 0 .6 1.6-.2 1.6 1.7v7.1c0 1.1-1.1 1-1.1 1.6 0 .2.1.2.2.2.2 0 .6-.1 2.1-.1 1.3 0 1.8.1 2.1.1.2 0 .4-.1.4-.3 0-.9-2 .4-2-2.1V10zM147.3 2.6c-.3 0-1 1.2-1 1.5 0 .3.7 1.4 1 1.4.3 0 1-1.1 1-1.4-.1-.3-.7-1.5-1-1.5zM146.4 16c0 1.8-.8 1.9-1.1 1.9-.3 0-.8-.1-.8.1 0 .3-.3.4 1 .5.5 0 1.1-.1 1.9-.1 1 0 1.7.1 2.2.1.3 0 .5-.1.4-.3-.2-.5-1.8-.1-1.8-1.5v-10c0-.3-.1-.4-.3-.4-.5 0-.9 1-2.4 1.5-.1 0-.3.1-.3.2 0 .6 1.3-.6 1.3 1.5V16h-.1z"/><path fill-rule="evenodd" clip-rule="evenodd" fill="#231F20" d="M196.1 18.8l3.2-9.6c.5-1.7 1.2-1.4 1.3-1.6.1-.1 0-.3-.3-.3h-1.4c-.6 0-1-.1-1.2-.1-.4 0-.8 0-.7.3.1.3 1.5.2 1.5 1.7 0 .2 0 .4-.3 1.4l-1.8 5.6-2.5-6.8s-.1-.2-.1-.7c0-1.1 1.3-1 1.4-1.2 0-.2-.2-.3-.5-.3h-3.3c-.3 0-.5.1-.5.3 0 .4.9.4 1.1 1l2.6 7.1c.2.6.3.8.6 1.8.2.7.1 1.3.1 1.3-.2 1.1-.9 1.7-1.9 3.6-.1.2 1.5 0 1.5 0 .1 0 .1-.1.3-.4l1.2-3.5-.3.4z"/><path fill="#231F20" d="M258.3 2.6c-.3 0-1 1.2-1 1.5 0 .3.7 1.4 1 1.4.3 0 1-1.1 1-1.4 0-.3-.7-1.5-1-1.5zM257.5 16.1c0 2.5-1.1 1.5-1.3 2.2-.1.3.4.3.6.3.3 0 .9-.1 1.6-.1.9 0 1.7.1 2.2.1.3 0 .5-.1.4-.3-.2-.5-1.8-.1-1.8-1.5v-10c0-.3-.1-.4-.3-.4-.5 0-.9 1-2.4 1.5-.1 0-.4 0-.4.2 0 .6 1.4-.6 1.3 1.5v6.5h.1zM273.5 10.2c0-.4.8-2.1 2.7-2.1 1.8 0 2.6 2 2.6 3.4v5c0 1.8-.7 1.4-1 1.8-.1.2.1.3.4.3.3 0 .8-.1 1.6-.1 1.1 0 1.7.1 2 .1.2 0 .6-.2.4-.4-.6-.5-1.8.1-1.8-1.8V12c0-2-.7-5-3.7-5-2.2 0-3.3 2-3.3 1.7V7.1c0-.3-.1-.4-.3-.4-.5 0-.9.9-2.7 1.4-.1 0-.4 0-.4.2 0 .6 1.7-.4 1.7 1.5v6.7c0 1.2-.6 1.5-1.7 1.5-.2.1.1.1.1.3-.1.2.4.3.7.3.3 0 .7-.1 1.9-.1 1.3 0 1.8.1 2.1.1.3 0 .7-.1.5-.4-.4-.4-2 .1-2-1.8v-6.2h.2z"/><path fill-rule="evenodd" clip-rule="evenodd" fill="#231F20" d="M267.5 15.7v-3.4c-1.5.4-4.4.8-4.4 3.3 0 1.6.9 2.4 2.1 2.4.9 0 2.3-.8 2.3-2.3zm1.5.9c.1.7.3 1.3 1 1.3.1 0 .3-.1.4-.1.1 0 .3 0 .3.2 0 .6-1 .7-1.3.7-.9 0-1.5-.5-1.7-1.4v-.1c-1 1-2.2 1.6-3.5 1.6-1.5 0-2.9-.9-2.9-2.8 0-1.5.8-3.3 6.2-4.3v-2c0-1.4-.7-2.5-2.1-2.4-1.2.1-2.1 1.6-2.1 2.8 0 0 0 .1-.1.1-.1.1-1 1-1.2.8-.9-1.1 1-4.4 3.8-4.4 2 0 3.3 1.1 3.4 2.9v5.7c-.2.4-.2.9-.2 1.4zM230.7 18.9l3.2-9.6c.5-1.7 1.2-1.4 1.3-1.6.1-.1 0-.3-.3-.3h-1.4c-.6 0-1-.1-1.2-.1-.4 0-.8 0-.7.3.1.3 1.5.2 1.5 1.7 0 .2 0 .4-.3 1.4l-1.8 5.6-2.5-6.8s-.1-.2-.1-.7c0-1.1 1.3-1 1.4-1.2 0-.2-.2-.3-.5-.3H226c-.3 0-.5.1-.5.3 0 .4.9.4 1.1 1l2.6 7.1c.2.6.3.8.6 1.8.2.7.1 1.3.1 1.3-.2 1.1-.9 1.7-1.9 3.6-.1.2 1.5 0 1.5 0 .1 0 .1-.1.3-.4l1.2-3.5-.3.4z"/><path fill="#231F20" d="M238.3 6.9c-1.6 0-3 1-3 3.1 0 1.9 2.3 3 3.5 3.7.9.5 2 1 2 2.2 0 1.4-1.1 2.3-2.3 2.3-2.7 0-2.4-3.5-2.9-3.5-.3 0-.3.9-.3 1.3 0 1.1 0 2 .1 2.1h.4c.5 0 1.2.6 2.8.6 1.8 0 3.4-1.6 3.4-3.6 0-1.2-.4-2-2.1-3.1-.4-.2-1.1-.6-1.4-.8-1.4-.8-2-1.3-2-2-.1-1.3 1-1.9 1.9-1.8 2.2 0 2.5 2.4 2.7 2.4.3 0 .2-.3.2-1.1 0-.2 0-1.1-.1-1.3-.3-.4-1.8-.6-2.2-.6h-.5l-.2.1zM285 6.9c-1.6 0-3 1-3 3.1 0 1.9 2.3 3 3.5 3.7.9.5 2 1 2 2.2 0 1.4-1.1 2.3-2.3 2.3-2.7 0-2.4-3.5-2.9-3.5-.3 0-.3.9-.3 1.3 0 1.1 0 2 .1 2.1h.4c.5 0 1.2.6 2.8.6 1.8 0 3.4-1.6 3.4-3.6 0-1.2-.4-2-2.1-3.1-.4-.2-1.1-.6-1.4-.8-1.4-.8-2-1.3-2-2-.1-1.3 1-1.9 1.9-1.8 2.2 0 2.5 2.4 2.7 2.4.3 0 .2-.3.2-1.1 0-.2 0-1.1-.1-1.3-.3-.4-1.8-.6-2.2-.6h-.5l-.2.1zM244.9 2.6c-.3 0-1 1.2-1 1.5 0 .3.7 1.4 1 1.4.3 0 1-1.1 1-1.4-.1-.3-.7-1.5-1-1.5zM244.1 16.1c0 2.5-1.1 1.5-1.3 2.2-.1.3.4.3.6.3.3 0 .9-.1 1.6-.1.9 0 1.7.1 2.2.1.3 0 .5-.1.4-.3-.2-.5-1.8-.1-1.8-1.5v-10c0-.3-.1-.4-.3-.4-.5 0-.9 1-2.4 1.5-.1 0-.4 0-.4.2 0 .6 1.4-.6 1.3 1.5v6.5h.1zM251.7 18.6c3 0 4.3-2.3 4.3-2.7 0-.1-.1-.2-.2-.2-.3 0-1.3 1.6-3 1.6-2.5 0-3.9-2.4-3.9-5.3 0-1.9.7-4.3 2.6-4.3 1 0 2 .4 2.7 1.6.1.1.3.6.5.6.1 0 .2-.2.2-.6V7.7c-.1-.6-1.6-1-2.7-1-2.8 0-4.9 2.8-4.9 6.1 0 3.1 1.9 5.8 4.4 5.8zM218 1.8c0-.3-.1-.4-.3-.4-.5-.1-.7 1-2.4 1.4-.1 0-.5.1-.5.2-.1.7 1.5-.2 1.5 1.6v12.1c0 1.4-1.2 1.2-1.4 1.6 0 .2.1.3.2.3.4 0 1.4-.1 2.1-.1.7 0 1.9.1 2.4.1.3 0 .4-.1.4-.4-.2-.5-2 .2-2-2.1v-5.8c0-1.4 1.7-2.5 2.7-2.5.8 0 2.8.6 2.8 4.1V17c0 1-1 1.1-1.1 1.4 0 .2.1.3.4.3.3 0 1-.1 1.9-.1.9 0 1.6.1 2 .1.3 0 .4 0 .3-.3 0-.1 0-.3-.4-.2-.8 0-1.5-.2-1.5-1.3V12c0-2.4-.9-5.5-3.9-5.5-1.3 0-2.4.7-3.3 1.7V1.8h.1zM213.4 7c0-3-2.7-4.6-5.1-4.6-.7 0-1.2 0-1.2.7v7.6c0 .7.6.7 1.2.7 2.5 0 5.1-1.5 5.1-4.4zm-6.3 5.2v3.3c0 3.5 1.6 1.8 1.9 2.9.1.2 0 .3-.5.3-.7 0-.7-.1-2-.1-1 0-1.7.1-2.3.1-.1 0-.3-.1-.3-.3 0-.7 1.7.1 1.7-2.6V4.2c0-2.9-1.8-1.4-1.8-2.3 0-.2.1-.4.3-.4.2 0 .9.1 2.2.1 1.1 0 1.4-.1 2.4-.1 2.2 0 5 .7 6 2.8.2.3.2.4.4 1 .1.4.2.8.2 1.5s-.1 1.1-.2 1.4c-.2.7-.3.8-.4 1.1-1 2.1-3.8 2.8-6 2.8-.8.2-1.2.1-1.6.1zM289.6 6.8c0-1.1.9-2 2-2s2 .9 2 2-.9 2-2 2-2-.8-2-2zm3.8 0c0-1-.8-1.7-1.7-1.7-.9 0-1.7.8-1.7 1.7 0 1 .8 1.7 1.7 1.7.9.1 1.7-.7 1.7-1.7zm-.8 1.1h-.4l-.7-1h-.4v1h-.3V5.7h1c.4 0 .8.1.8.6 0 .4-.3.6-.7.6l.7 1zm-1-1.3c.3 0 .8.1.8-.3 0-.2-.3-.3-.5-.3h-.6v.6h.3z"/></svg>