<?xml version="1.0" encoding="utf-8"?><!DOCTYPE svg PUBLIC "-//W3C//DTD SVG 1.1//EN" "http://www.w3.org/Graphics/SVG/1.1/DTD/svg11.dtd"><svg xmlns="http://www.w3.org/2000/svg" width="278.5" height="22.7" viewBox="0 0 278.5 22.7"><path fill-rule="evenodd" clip-rule="evenodd" d="M100.7 17.9c-2.7 0-3.8-3.3-3.8-6 0-2.3.9-4.5 3.2-4.5 2.7 0 3.7 2.9 3.7 5.8.1 3.3-1.1 4.7-3.1 4.7zm-.2.8c2.8 0 5-2.6 5-6 0-5.1-3.2-6.2-5-6.2-2.9 0-5.1 2.9-5.1 6.3 0 3.8 2.1 5.9 5.1 5.9z"/><path d="M33.5 9.6l-.7-2s-.1 0 .4-1.6l1-3.1c.5-1.5 1-2.4 1.7-2.4.8 0 .8-.5.2-.5H33c-.2 0-.5.1-.5.3 0 .2.4.1.6.3.4.2.7 1.1.4 2.1l-1.2 3.9-1.4-3.7c-.3-.7-.6-2.2 0-2.4.7-.1.6-.5.2-.5-.8 0-1.2.1-1.9.1-.8 0-1.4-.1-2.2-.1-.2 0-.5 0-.4.3 0 .2.4.1.7.3.9.6 1.1 1.4 1.4 2.2l2 5.8c.4 1 .4.7.1 1.5L29 15 24.8 2.5c-.3-.9-.5-1.6.2-2 .3-.2.4-.2.5-.3 0-.1.1-.3-.4-.3-.8 0-1.3.1-2.1.1s-1.4-.1-2.2-.1c-.3 0-.3.1-.3.3 0 .3.6.1 1.2.7.3.3.9 1.5 1 1.9L28 18.2c.1.2.1.7.4.7.2 0 .3-.5.4-.7l2.8-7.7 2.7 7.3c.1.3.3 1.1.6 1.1.2 0 .3-.4.4-.7l5.2-15.1c.4-1.2 1-2.5 1.8-2.6.3 0 .5-.2.5-.2 0-.2 0-.3-.3-.3-.6 0-.9.1-1.5.1S39.9 0 39.4 0c-.4 0-.4.1-.4.3 0 .2.6.1.9.8.2.4.1 1.2-.1 1.7l-4.5 12.3-1.8-5.5zM93.2 6.9c0-2.1 0-2.9-.3-2.9s-.3.1-.6 1c-.5 1.6-2.2 2.3-2.8 2.6-.1.1-.1.1-.1.2 0 .2.6.2 2 .2v7.2c0 3.1 1.5 3.6 2.6 3.6 1.7 0 2.9-1.2 2.9-1.6 0-.2 0-.3-.2-.2-.2.1-.8.7-2 .7-1 0-1.5-.6-1.5-1.8V8.2h3c.2 0 .6-1.3.6-1.4 0-.2.1-.3.1-.4 0-.2-.2-.3-.3 0-.1.1-.3.5-.9.5h-2.5zM108.3 9.9c0-.4.8-2.2 2.7-2.2 1.9 0 2.7 2.1 2.7 3.5v5.2c0 2-.7 1.4-1 1.8-.2.2.1.3.4.3.3 0 .8-.1 1.7-.1 1.1 0 1.6.1 1.9.1.2 0 .6-.2.4-.4-.6-.5-1.7.2-1.7-1.8v-4.6c0-2.1-.7-5.2-3.8-5.2-2.2 0-3.4 2.1-3.3 1.8V6.7c0-.3-.1-.4-.3-.4-.5 0-.9.9-2.7 1.5-.1 0-.4 0-.5.2 0 .6 1.8-.8 1.8 1.5v6.8c0 1.8-1.2 1.4-1.5 1.8-.1.2.2.3.5.3s.7-.1 2-.1 1.8.1 2.2.1c.3 0 .7-.2.5-.4-.4-.4-2 .1-2-1.8V9.9z"/><path fill-rule="evenodd" clip-rule="evenodd" d="M44.8 15.6c0 1.5-1.5 2.2-2.3 2.2-1.2 0-2.1-.8-2.1-2.4 0-2.4 2.9-2.9 4.4-3.3v3.5zm-.2-4.1c-5.4 1.1-6.2 2.9-6.2 4.3 0 2 1.4 2.8 2.9 2.8 1.3 0 2.6-.6 3.5-1.6.3.9.9 1.5 1.8 1.4.3 0 .4.1 1.3-.3.3-.1.3-.1.7 0 .7.1-.9-2.6-1-1.9 0 .2.1 1.4-.5 1.5-1.1.1-.8-1.7-.8-2.6V9.4c-.1-1.8-1.4-2.9-3.4-2.9-2.7 0-4.7 3.4-3.8 4.4.2.3 1.1-.7 1.2-.8l.1-.1c0-1.2.9-2.6 2.1-2.7 1.4-.1 2.1.9 2.1 2.4v1.8z"/><path d="M50.7 6.5c-1.6 0-3.1 1-3 3.2 0 2 2.3 3 3.5 3.8.9.5 2 1.2 2 2.3 0 1.4-1.1 2.4-2.3 2.3-2.8 0-2.5-3.6-3-3.6-.3 0-.3.9-.3 1.4 0 1.1.4 1.6.4 2.1.3.1-.1.2.2.2.6 0 1.3.6 2.9.6 1.8 0 3.4-1.6 3.4-3.7 0-1.3-.4-2.1-2.1-3.2-.5-.2-1.1-.6-1.5-.8-1.4-.8-2-1.3-2.1-2.1-.1-1.3 1-1.9 2-1.9 2.3 0 2.6 2.5 2.8 2.5.3 0 .3-.3.3-1.1 0-.2 0-1.1-.1-1.4-.3-.4-1.9-.7-2.3-.7H51c-.1.1-.3.1-.3.1zM57.3.6c0-.3-.1-.4-.3-.4-.4 0-.9 1.1-2.6 1.5-.1 0-.5.1-.5.2 0 .6 1.7-.3 1.8 1.5v13.2c0 1.4-1.1 1.2-1.4 1.6 0 .2.1.3.2.3.4 0 1.4-.1 2.1-.1.7 0 1.9.1 2.3.1.3 0 .4-.1.4-.4-.2-.5-2 .2-2-2.1v-5.8c0-1.4 1.7-2.5 2.7-2.5.8 0 2.8.6 2.8 4.1v5.1c0 1-1 1.1-1.1 1.4 0 .2.1.3.4.3.3 0 1-.1 1.9-.1.9 0 1.6.1 2 .1.3 0 .4 0 .3-.3 0-.1 0-.3-.4-.2-.8 0-1.5-.2-1.5-1.3v-4.6c0-2.4-.9-5.4-3.8-5.4-1.3 0-2.4.7-3.3 1.7V.6zM67.6 2.9c-.3 0-.9 1.1-.9 1.4 0 .3.7 1.4.9 1.4.3 0 .9-1.1.9-1.4s-.6-1.4-.9-1.4zM66.9 16c.1 1.7-.9 1.8-1.4 1.8-.7 0-.6.1-.6.3 0 .3.5.3 1.2.3.3 0 .9-.1 1.6-.1.9 0 1.7.1 2.1.1.3 0 .7-.7.1-.6-.5 0-1.4-.2-1.4-1.2V6.7c0-.3-.1-.4-.3-.4-.5 0-.9 1-2.3 1.5-.1 0-.3.1-.3.2 0 .6 1.3-.5 1.3 1.5V16zM73.2 9.9c0-.4.8-2.2 2.7-2.2 1.9 0 2.7 2.1 2.7 3.5v5.2c0 1.8-.7 1.4-1 1.8-.2.2.1.3.4.3s.8-.1 1.7-.1c1.1 0 1.7.1 2 .1.2 0 .6-.2.4-.4-.6-.5-1.8.1-1.8-1.9v-4.6c0-2.1-.7-5.2-3.8-5.2-2.2 0-3.4 2.1-3.3 1.8V6.7c0-.3-.1-.4-.3-.4-.5 0-.6.9-2.6 1.4-.1 0-.3 0-.3.3 0 .6 1.6-.6 1.6 1.5v6.8c0 1.5-1.2 1.5-1.4 1.5-.2 0-.5 0-1-.1-.6-.1-.1.4-.2.5-.1.2 1.3.2 1.6.2.3 0 .7-.1 2-.1s1.8.1 2.2.1c.3 0 .7-.2.5-.4-.4-.4-2 .1-2-1.9V9.9h-.1z"/><path fill-rule="evenodd" clip-rule="evenodd" d="M83 20.6c-.7-1-.1-3 .9-3.1.2 0 .2.1 2.3.2 2.2.1 3 .7 3.1 1.3.2 1-.5 3.2-3.6 2.9-2-.1-2.6-1-2.7-1.3zm5.2-10.2c0 1.7-.8 3.1-2.5 3.1-1.9 0-2.5-1.8-2.5-3.5 0-1.8.5-3.2 2.4-3.2 1.8 0 2.6 1.9 2.6 3.6zm-5.5 6.9c-.8.3-1.7 1.3-1.7 2.3-.1 2.2 2.6 3.1 4.9 3 4.6-.1 5.8-3.2 4.9-4.9-1-1.7-3.1-1.7-5-1.7-3.7 0-3-2.3-1.5-2.2.4 0 .2.1 1.4.1 2.2 0 4.2-1.5 4.2-3.9 0-.2 0-.9-.5-1.9h3.1c.1 0-.1-2.6-1.1-1.6-.2.1-1.2.9-2.5.6-.7-.1-1.4-.9-3.4-.9-2.1 0-4 1.7-4 4.1 0 1.3.6 2.5 1.5 3.1-.2.1-1.4 1.1-1.2 2.3 0 0-.1 1.2.9 1.6zM164.7 11.6c.5 0 .8 0 .8-.5 0-1.1-1.2-4.4-4.1-4.4-2.9 0-4.5 3-4.5 6.5 0 1.8 1.2 5.7 4.7 5.7 2.1 0 4.1-2 4.1-2.6 0-.1 0-.2-.1-.2-.5 0-1.3 1.4-3.3 1.4-1.4 0-3.7-1.4-3.7-5.9h6.1zm-6.1-.8c0-1.5 1-3.5 2.4-3.5 1.3 0 2.6 1.4 2.6 2.9 0 .4-.1.6-.5.6h-4.5z"/><path d="M175.7 6.8c-1.6 0-3 1-3 3.1 0 1.9 2.3 3 3.5 3.7.9.5 2 1 1.9 2.2 0 1.4-1.1 2.3-2.3 2.3-2.7 0-2.4-3.5-2.9-3.5-.3 0-.3.9-.3 1.3 0 1.1 0 2 .1 2.1 0 .1.2 0 .4 0 .5 0 1.2.6 2.8.6 1.8 0 3.3-1.6 3.3-3.6 0-1.2-.4-2-2.1-3.1-.4-.2-1.1-.6-1.4-.8-1.4-.8-2-1.3-2-2-.1-1.3 1-1.9 1.9-1.8 2.2 0 2.5 2.4 2.7 2.4.3 0 .2-.3.2-1.1 0-.2 0-1.1-.1-1.3-.3-.4-1.8-.6-2.2-.6h-.5c.2.1 0 .1 0 .1zM182 2.6c-.3 0-1 1.2-1 1.5s.7 1.4 1 1.4c.3 0 1-1.1 1-1.4s-.7-1.5-1-1.5zM181.2 16c0 2.5-1.1 1.5-1.3 2.2-.1.3.4.3.6.3.3 0 .9-.1 1.6-.1.9 0 1.7.1 2.1.1.3 0 .5-.1.4-.3-.2-.5-1.8-.1-1.8-1.5v-10c0-.3-.1-.4-.3-.4-.5 0-.9 1-2.4 1.5-.1 0-.4 0-.4.2 0 .6 1.4-.6 1.3 1.5V16h.2zM122 4.3c0-1.7 1.2-1.4 1.3-1.7 0-.4-1.1-.2-1.2-.2-.6 0-1 .1-1.6.1-.5 0-1.1-.1-1.6-.1-.1 0-.4 0-.5.1-.2.5 1.6.2 1.6 1.7v7.5c0 3.7 1 7.3 6 7.2 5.9-.1 5.8-5.9 5.8-7.1V5c0-2.2 1-2 1.2-2.3.1-.2-.2-.2-.3-.2-.3 0-1.1.1-1.5.1-.7 0-1.4-.1-2.1-.1-.1 0-.4 0-.4.2 0 .6 1.8-.1 1.8 2.4v7.2c0 2.8-.8 5.8-4.4 5.8-2.6 0-4-1.8-4-5.6V4.3h-.1zM187.6 7.3c0-2 0-2.6-.3-2.6s-.3.1-.5 1c-.5 1.5-2.1 2.2-2.7 2.5-.1.2-.1.2-.1.3 0 .2.6.1 1.9.1v6.8c0 2.9 1.4 3.4 2.5 3.4 1.6 0 2.7-1.1 2.8-1.5 0-.2 0-.2-.2-.2-.2.1-.7.7-1.9.7-.9 0-1.4-.5-1.5-1.7V8.6h2.9c.2 0 .6-1.1.6-1.2.1-.1-.1-.1-1.1-.1h-2.4zM135.6 10c0-.4.8-2.1 2.7-2.1 1.8 0 2.7 2 2.7 3.4v5.1c0 1.8-.7 1.4-1 1.8-.2.2.1.3.4.3s.8-.1 1.6-.1c1 0 1.7.1 2 .1.2 0 1.2-1 .9-1-.1 0-.4.5-1 .5h-.4c-.5-.1-.9-.4-.9-1.6v-4.5c0-2.1-.7-5.1-3.7-5.1-2.2 0-3.3 2-3.3 1.7V6.9c0-.3-.1-.4-.3-.4-.5 0-.7 1-2.5 1.4-.1 0-.4 0-.5.2 0 .6 1.6-.5 1.6 1.5v6.8c0 1.8-1.4 1.3-1.6 1.8-.1.2.4.3.7.3.3 0 .7-.1 1.9-.1 1.3 0 1.8.1 2.2.1.3 0 .7-.2.5-.4-.4-.4-2 .1-2-1.8V10zM150.9 9.7c-.3-.8-.4-1.3-.4-1.4 0-.8 1-.6 1.3-1 .1-.2-.2-.3-.5-.3s-.6.1-1.4.1h-1.5c-.8-.1-.7.3-.5.4.3.1.4 0 .8 1.2l3.5 9.5c.1.2.2.7.5.7s.3-.3.8-1.5c0 0 3.3-9 3.6-9.4.5-.6.8-.4 1-.6.2-.2.2-.5-.5-.4-.4 0-.7.1-1.1.1h-1.1c-.6 0-.8 0-.7.2.1.5 1.4 0 1.2 1.6-.1 1.3-.6 2.4-1 3.5l-1.5 4-2.5-6.7zM168.7 10c0-.4.5-1.6 1.5-1.6.8 0 .9.6 1.3.6.3 0 .8-.8.8-1.2 0-.5-1-1.2-1.5-1.2-.9 0-1.6 1.1-2.1 1.9V6.8c0-.3-.1-.4-.3-.4-.4 0-.6.7-2.6 1.2-.1 0-.4.1-.4.3 0 .6 1.6-.2 1.6 1.7v7.1c0 1.1-1.1 1-1.1 1.6 0 .2.1.2.2.2.2 0 .6-.1 2.1-.1 1.3 0 1.8.1 2.1.1.2 0 .4-.1.4-.3 0-.9-2 .4-2-2.1V10zM145.9 2.6c-.3 0-1 1.2-1 1.5 0 .3.7 1.4 1 1.4.3 0 1-1.1 1-1.4 0-.3-.7-1.5-1-1.5zM145.1 16c0 1.8-.8 1.9-1.1 1.9-.3 0-.8-.1-.8.1 0 .3-.3.4 1 .4.5 0 1.1-.1 1.9-.1.9 0 1.7.1 2.1.1.3 0 .5-.1.4-.3-.2-.5-1.8-.1-1.8-1.5V6.7c0-.3-.1-.4-.3-.4-.5 0-.9 1-2.4 1.5-.1 0-.3.1-.3.2 0 .6 1.3-.6 1.3 1.5V16z"/><path fill-rule="evenodd" clip-rule="evenodd" d="M194.7 18.8l3.2-9.5c.5-1.7 1.2-1.4 1.3-1.6.1-.1 0-.3-.3-.3h-1.4c-.6 0-1-.1-1.2-.1-.4 0-.8 0-.7.3.1.3 1.5.2 1.5 1.7 0 .2 0 .4-.3 1.4l-1.8 5.6-2.5-6.8s-.1-.2-.1-.7c0-1.1 1.3-1 1.4-1.2 0-.2-.2-.3-.5-.3H190c-.3 0-.5.1-.5.3 0 .4.9.4 1.1 1l2.6 7.1c.2.6.3.8.6 1.8.2.7.1 1.3.1 1.3-.2 1.1-.9 1.7-1.9 3.6-.1.2 1.5 0 1.5 0 .1 0 .1-.1.3-.4l1.2-3.5-.3.3z"/><path d="M225 3.4h-.3c-2.1 0-4 1.3-4 4.1.1 2.5 3.1 4 4.7 5 1.2.7 2.4 1.8 2.4 3-.1 1.9-1.3 3.1-2.8 3-3.6-.1-3.1-4.6-3.8-4.6-.4 0-.4 1.1-.4 1.8 0 1.4-.1 2.6.1 2.8.1.1.2 0 .6 0 .7 0 1.6.8 3.7.8 2.3 0 4.3-2 4.3-4.7 0-1.7-.5-2.7-2.8-4.1-.6-.3-1.5-.8-1.9-1-1.9-1-2.6-1.7-2.7-2.7-.1-1.8 1.6-2.8 2.8-2.6 1.6 0 2.8.9 3.4 2.8.1.2.2.7.4.7s.2-.2.2-.3l-.3-3c0-.2-.1-.3-.2-.3-.2 0-.3.2-.4.2-.3-.1-.9-.9-3-.9zM232.4 7.7c0-2 0-2.6-.3-2.6s-.3.1-.5 1c-.5 1.5-2.1 2.2-2.6 2.5-.1.1-.1.1-.1.2 0 .2.6.1 1.9.1v6.7c0 2.9 1.4 3.4 2.4 3.4 1.6 0 2.7-1.1 2.7-1.5 0-.2 0-.2-.2-.2-.2.1-.7.6-1.9.6-.9 0-1.4-.5-1.5-1.7V8.9h2.8c.2 0 .6-1.2.6-1.2 0-.1.1-.3.1-.4 0-.2-.1-.2-.3 0-.1.1-.3.4-.9.4h-2.2zM243.2 5.6c0-2.4 1.6-1.7 1.7-2.1 0-.3-.2-.2-.5-.2s-.9.1-2.1.1c-1 0-1.9-.1-2.4-.1-.3 0-.5.1-.4.3.2.5 1.7 0 1.7 1.5v10.3c0 1.3.2 2.1-.4 2.4-.7.4-1.4.5-1.4.7 0 .2.4.2.6.2.8 0 2-.1 2.8-.1 1.6-.1 3.2.1 4.7.1.9 0 1.1-.2 1.8-1.2.5-.7.5-.8.5-1.8 0-.1 0-.3-.2-.3-.3 0-.2 2.2-5 2.2-1.7 0-1.6-.7-1.6-2.3V5.6h.2zM237.4 16.1c-.3 0-1 1.1-1 1.4 0 .3.7 1.4 1 1.4.3 0 1-1.1 1-1.4 0-.3-.7-1.4-1-1.4zM274.8 7.2c-1.5 0-3 .9-2.9 3 0 1.9 2.2 2.9 3.4 3.7.9.5 1.9 1 1.9 2.2 0 1.4-1.1 2.3-2.2 2.2-2.7 0-2.3-3.4-2.8-3.4-.3 0-.3.8-.3 1.3 0 1.1 0 1.9.1 2.1h.4c.5 0 1.2.6 2.7.6 1.7 0 3.3-1.6 3.3-3.6 0-1.2-.4-2-2-3-.4-.2-1.1-.6-1.4-.8-1.4-.8-1.9-1.3-2-2-.1-1.2 1-1.9 1.9-1.8 2.2 0 2.4 2.4 2.7 2.4.3 0 .2-.3.2-1 0-.2 0-1.1-.1-1.3-.3-.4-1.8-.6-2.2-.6h-.7zM269.2 3.4c-.3 0-.9 1.1-.9 1.4 0 .3.6 1.4.9 1.4.3 0 .9-1.1.9-1.4 0-.3-.6-1.4-.9-1.4zM268.4 16.3c0 2.4-1.1 1.5-1.2 2.1-.1.3.4.3.6.3.2 0 .8-.2 1.5-.2.9 0 1.1.2 1.6.2.3 0 .5-.1.4-.3-.2-.5-1.3-.1-1.3-1.4V7.4c0-.3-.1-.4-.3-.4-.5 0-.8.9-2.3 1.4-.1 0-.3 0-.3.2 0 .6 1.1-.7 1.2 1.5v6.2h.1zM264.1 15.4c-.1 1.1-1.1 2.4-2.4 2.4-.3 0-2.1-.2-2.1-3.1V7.9c0-.5-.3-.7-.4-.7-.3 0-.5.1-.8.1-.2.1-.5.2-1.2.2-.3 0-.7-.1-.6.2.1.3 1.4 0 1.4 1V15c0 2.3 1.4 3.6 3.2 3.6 1.2 0 2.2-.2 2.9-1.5v1.1c0 .1 0 .4.2.4.3 0 .5-.3.7-.3.3-.1.3-.3 1.1-.3.3 0 .7-.2.7-.4-.1-.5-1.3 0-1.3-.7v-9c0-.5-.3-.7-.4-.7-.3 0-.5.1-.8.1-.2.1-.5.2-1.1.2-.1 0-.7-.1-.7.2 0 .3 1.4.1 1.4 1v6.7h.2z"/><path fill-rule="evenodd" clip-rule="evenodd" d="M252.8 18.2c-2.4 0-3.4-3.4-3.4-6 0-2.3.8-4.4 2.8-4.4 2.5 0 3.3 2.9 3.3 5.7.1 3.2-1 4.7-2.7 4.7zm-.2.6c2.5 0 4.6-2.6 4.6-5.9 0-5-3.1-5.9-4.6-5.9-2.6 0-4.7 2.8-4.7 6.1 0 3.7 2 5.7 4.7 5.7z"/><path d="M209.3 10.2c0-.4.8-2.1 2.6-2.1s2.6 2 2.6 3.4v5c0 1.7-.7 1.3-1 1.7-.1.2.1.3.4.3.3 0 .8-.1 1.6-.1 1.1 0 1.7.1 1.9.1.2 0 .6-.2.4-.4-.6-.5-1.7.1-1.7-1.8V12c0-2-.7-5-3.7-5-2.2 0-3.3 2-3.3 1.7V7.1c0-.3-.1-.4-.3-.4-.5 0-.9.9-2.7 1.4-.1 0-.4 0-.4.2 0 .6 1.7-.4 1.7 1.5v6.7c0 1.2-.6 1.5-1.7 1.5-.2.1.1.1.1.3-.1.2.4.3.7.3.3 0 .7-.1 1.9-.1 1.3 0 1.7.1 2.1.1.3 0 .7-.1.5-.4-.4-.4-2 .1-2-1.8v-6.2h.3zM203.7 2.8c-.3 0-.9 1.2-.9 1.5 0 .3.7 1.4.9 1.4.3 0 .9-1.1.9-1.4.1-.4-.6-1.5-.9-1.5zM203 16.1c0 2.5-1.1 1.5-1.3 2.1-.1.3.4.3.6.3.2 0 .9-.1 1.6-.1.9 0 1.6.2 2.1.2 1.8-.1.5-.2.4-.4-.1-.1.9-.5-.1-.2-1-.1-1.7-.3-1.7-1.3V7.1c0-.3-.1-.4-.3-.4-.5 0-.9 1-2.3 1.5-.1 0-.4 0-.4.2 0 .6 1.3-.6 1.3 1.5v6.2h.1z"/><path fill="#007360" d="M18.1 15.3V0C12.5 1.5 6 1.5 0 0v15.3c0 1.3-.3 2.3 5 4.2 1.2.4 2.8 1 4.1 1.4 1.2-.4 2.3-.8 3.5-1.3 1.7-.6 5.5-1.3 5.5-4.3z"/><path fill="#9E0918" d="M.8 4.6h16.5v9.8H.8V4.6z"/><path fill="#E7D1B9" d="M17.3 4.9C12 6.1 6 6.3.8 4.9V1c5 1.1 11.5 1.3 16.5 0v3.9zM17.3 10.5l-2.8.5V8.2c.9-.1 1.6-.3 2.8-.6v2.9zM3.7 11.1c-1-.1-1.6-.3-2.9-.6V7.7c1.2.3 2 .3 2.9.6v2.8zM12.5 11.6H9.6l-.5.5-.5-.5h-3V6.8h3l.5.4.5-.4h2.9v4.8zM13.9 12.9H9.8l-.7.7-.8-.7H4.4V7.7l.6-.5v5h3.5l.6.6.6-.6h3.4l.1-5 .7.6v5.1zM17.3 15.6c-.3 1.9-2.4 2.5-3.1 2.9-1.7.7-3.4 1.2-5.1 1.9C2.5 17.9.9 17.6.8 15.7v-2.1c5.2 1.2 11 1.2 16.5 0v2z"/><path fill="#007360" d="M9.6 16.5v-1.2l-.4-.4-.4.4v1.2l.3.6v1h.2v-1l.3-.6zM11.3 17.1v-.6h-1.2l-.5.7v.9h.4v-.6l.4-.4.5.3.4-.3zM7.1 17.1v-.6h1.2l.4.7v.9h-.3v-.6l-.4-.4-.6.3-.3-.3zM8.7 18.8v-.4H8v.4l.5.3.2-.3zM9.6 18.8v-.4h.8v.4l-.5.3-.3-.3zM9.6 19.4l-.3-.5v-.5h-.2v.5l-.4.5.5.5.4-.5zM3.9 15.5v-.9l-.3-.3-.3.3v.9l.2.4v.7h.2v-.7l.2-.4zM5.1 15.9v-.4h-.8L4 16v.6h.2v-.4l.3-.3.4.3.2-.3zM2.1 15.9v-.4H3l.3.5v.6H3v-.4l-.3-.3-.3.3-.3-.3zM3.3 17.2v-.3h-.5v.2l.3.3.2-.2zM4 17.2v-.3h.5v.2l-.4.3-.1-.2zM3.9 17.6l-.2-.4v-.3h-.2v.3l-.2.4.3.4.3-.4zM15.1 15.5v-.9l-.3-.3-.4.3v.9l.3.4v.7h.1v-.7l.3-.4zM16.3 15.9v-.4h-.9l-.3.5v.6h.3v-.4l.3-.3.3.3.3-.3zM13.2 15.9v-.4h.9l.3.5v.6h-.2v-.4l-.3-.3-.4.3-.3-.3zM14.4 17.2v-.3h-.5v.2l.3.3.2-.2zM15.1 17.2v-.3h.5v.2l-.3.3-.2-.2zM15.1 17.6l-.3-.4v-.3h-.1v.3l-.3.4.3.4.4-.4zM16.2 3.1L15.1 3l-.4-1.1-.4 1.1-1.1.1 1 .6-.4 1.1.9-.7 1 .7-.3-1.1.8-.6zM5.1 3.1h-1L3.7 2l-.4 1H2.2l.9.6-.4 1.2.9-.7 1 .7-.4-1.1.9-.6zM10.6 3.5H9.5l-.4-1.1-.3 1.1H7.7l.9.7-.4 1.1 1-.7.9.7-.4-1.1.9-.7z"/></svg>