<?xml version="1.0" encoding="utf-8"?><!DOCTYPE svg PUBLIC "-//W3C//DTD SVG 1.1//EN" "http://www.w3.org/Graphics/SVG/1.1/DTD/svg11.dtd"><svg xmlns="http://www.w3.org/2000/svg" width="23" height="23" viewBox="0 0 23 23"><path opacity=".12" fill-rule="evenodd" clip-rule="evenodd" d="M9.9 9.2l3.7 2.5.5-.3-4.2-2.2z"/><path fill="#fff" d="M19.1 8.4s-.2-1.1-.6-1.5c-.6-.6-1.3-.6-1.6-.7-2.1-.2-5.4-.2-5.4-.2s-3.3 0-5.4.2c-.3 0-1 0-1.6.7-.4.4-.6 1.5-.6 1.5s-.2 1.3-.2 2.5v1.2c0 1.3.2 2.5.2 2.5s.2 1.1.6 1.5c.6.6 1.4.6 1.7.7 1.2.1 5.3.2 5.3.2s3.3 0 5.4-.2c.3 0 1 0 1.6-.7.5-.5.6-1.5.6-1.5s.2-1.3.2-2.5v-1.2c0-1.2-.2-2.5-.2-2.5zm-9.2 5.1V9.2l4.2 2.2-4.2 2.1z"/></svg>